<svg width="22" height="21" viewBox="0 0 22 21" fill="none" xmlns="http://www.w3.org/2000/svg">
<path d="M2.42205 20.332C2.78191 20.332 3.14177 20.1521 3.50162 19.9722L11.0587 12.2352L18.6157 19.7922C18.9756 20.1521 19.3354 20.1521 19.6953 20.1521C20.0551 20.1521 20.415 20.1521 20.7748 19.7922C21.1347 19.4324 21.1347 19.0725 21.1347 18.7127C21.1347 18.3528 20.9548 17.9929 20.7748 17.6331L13.2178 10.076L20.7748 2.51901C21.3146 1.97922 21.3146 0.899647 20.7748 0.359859C20.415 0 20.0551 0 19.6953 0C19.3354 0 18.9756 0.179929 18.6157 0.359859L11.0587 7.91689L3.50162 0.359859C3.14177 0.179929 2.78191 0 2.42205 0C2.06219 0 1.70233 0.179929 1.34247 0.359859C0.802683 0.899647 0.802683 1.97922 1.34247 2.51901L8.89951 10.076L1.34247 17.6331C0.982613 17.9929 0.982613 18.3528 0.982613 18.7127C0.982613 19.0725 1.16254 19.4324 1.34247 19.7922C1.5224 20.1521 2.06219 20.332 2.42205 20.332Z" fill="#666666"/>
</svg>
