<svg width="140" height="152" viewBox="0 0 140 152" fill="none" xmlns="http://www.w3.org/2000/svg">
<path d="M22.6156 0.342773C10.6426 0.342773 0 10.9854 0 22.9583C0 34.9313 10.6426 45.5739 22.6156 45.5739C34.5885 45.5739 45.2311 34.9313 45.2311 22.9583C45.2311 10.9854 35.9188 0.342773 22.6156 0.342773Z" fill="#F0FFFF"/>
<path d="M62.5256 10.9854H47.892C49.2223 14.9763 50.5526 18.9673 50.5526 22.9583C50.5526 25.6189 50.5526 28.2796 49.2223 29.6099H63.8559C95.7837 29.6099 118.399 50.8952 118.399 80.1623C118.399 110.76 95.7837 132.045 63.8559 132.045H34.5887V48.2345C30.5977 49.5648 26.6067 50.8952 22.6157 50.8952C19.9551 50.8952 17.2944 50.8952 14.6338 49.5648V152H62.5256C107.757 152 139.684 122.733 139.684 81.4927C139.684 40.2525 107.757 10.9854 62.5256 10.9854Z" fill="#F0FFFF"/>
</svg>
