<svg width="252" height="79" viewBox="0 0 252 79" fill="none" xmlns="http://www.w3.org/2000/svg">
<g filter="url(#filter0_d_2958_783)">
<path d="M60.917 27.4406C60.917 26.0413 62.0364 24.9219 63.4357 24.9219C64.835 24.9219 65.9544 26.0413 65.9544 27.4406C65.9544 28.8399 64.835 29.9593 63.4357 29.9593C62.0364 29.9593 60.917 28.8399 60.917 27.4406Z" fill="#303755"/>
<path d="M65.6749 33.5972H61.4771V55.7058H65.6749V33.5972Z" fill="#303755"/>
<path d="M78.2683 33.0376C75.7496 33.0376 72.951 33.5973 69.8726 35.2764L71.5518 38.3549C73.5108 37.2354 75.7496 36.3959 77.7086 36.3959C82.1863 36.3959 83.3057 39.4743 83.3057 42.2728V42.8325C81.0669 41.993 78.828 41.7131 76.5892 41.7131C71.8316 41.7131 67.6338 44.7915 67.6338 48.9894C67.6338 53.1872 70.9921 55.9858 75.7496 55.9858C78.5482 55.9858 81.6266 54.8663 83.0259 52.3476V55.426H87.2237V42.2728C87.5035 36.9556 84.4251 33.0376 78.2683 33.0376ZM83.5856 48.9894C82.746 51.7879 79.6676 53.1872 77.1489 53.1872C74.3503 53.1872 72.1115 51.7879 72.1115 49.2692C72.1115 46.7505 74.6302 45.0714 77.4287 45.0714C79.6676 45.0714 81.6266 45.3512 83.5856 45.911V48.9894Z" fill="#303755"/>
<path d="M107.933 33.5973V37.2354C106.254 34.7167 103.455 33.0376 100.097 33.0376C94.2198 33.0376 90.022 37.2354 90.022 43.6721C90.022 49.8289 94.2198 54.3066 100.097 54.3066C103.455 54.3066 106.254 52.9073 107.933 50.3886V53.4671C107.933 57.385 105.134 59.6239 100.377 59.6239C97.5781 59.6239 95.0594 58.7843 93.3802 57.1052L91.7011 60.1836C93.9399 61.8627 97.2982 63.262 100.936 63.262C107.373 63.262 112.131 59.344 112.131 53.4671V33.5973H107.933ZM100.936 50.3886C97.0184 50.3886 94.2198 47.5901 94.2198 43.3923C94.2198 39.4743 97.0184 36.6757 100.936 36.6757C104.854 36.6757 107.653 39.4743 107.653 43.3923C107.933 47.5901 104.854 50.3886 100.936 50.3886Z" fill="#303755"/>
<path d="M135.359 41.7131V55.7059H131.161V42.5527C131.161 39.1944 128.922 36.9556 126.124 36.9556C123.045 36.9556 120.247 38.9146 119.967 41.7131V55.9858H115.769V33.5973H119.967V36.6757C121.366 34.4369 123.885 33.0376 126.963 33.0376C131.721 33.0376 135.359 36.6757 135.359 41.7131Z" fill="#303755"/>
<path d="M149.072 33.0376C142.635 33.0376 137.318 38.3549 137.318 44.5117C137.318 50.9484 142.635 56.2656 149.072 56.2656C155.508 56.2656 160.826 50.9484 160.826 44.5117C160.546 38.3549 155.229 33.0376 149.072 33.0376ZM149.072 52.6275C144.874 52.6275 141.516 48.9894 141.516 44.7915C141.516 40.5937 144.874 36.9556 149.072 36.9556C152.99 36.9556 156.348 40.5937 156.348 44.7915C156.348 48.9894 152.99 52.6275 149.072 52.6275Z" fill="#303755"/>
<path d="M150.471 24.9219L154.389 25.7614L148.232 31.0787H145.154L150.471 24.9219Z" fill="#303755"/>
<path d="M161.385 52.9073L163.344 49.8289C165.583 51.508 168.102 52.6274 170.9 52.6274C173.419 52.6274 175.098 51.508 175.098 49.8289C175.098 47.8699 172.859 47.0303 170.061 46.4706C165.023 45.0713 162.505 43.672 162.505 40.0339C162.505 35.8361 165.863 33.3174 170.62 33.3174C173.419 33.3174 176.497 34.4368 178.736 35.8361L176.777 38.9145C174.538 37.5152 172.3 36.9555 170.341 36.9555C168.102 36.9555 166.423 37.7951 166.423 39.4742C166.423 41.1533 167.822 41.7131 171.46 42.8325C175.098 43.9519 179.016 45.0713 179.016 49.549C179.016 53.7468 175.378 56.5454 170.62 56.5454C167.542 56.2655 163.904 55.1461 161.385 52.9073Z" fill="#303755"/>
<path d="M193.289 54.8663C192.17 55.9857 190.491 56.5454 188.811 56.5454C185.453 56.5454 182.934 54.0267 182.934 50.3886V37.2354H179.576V33.5973H182.934V27.4404H187.132V33.5973H192.45V37.2354H187.132V50.1087C187.132 51.7879 188.252 52.6274 189.371 52.6274C190.211 52.6274 191.05 52.3476 191.61 51.7879L193.289 54.8663Z" fill="#303755"/>
<path d="M194.408 27.4406C194.408 26.0413 195.528 24.9219 196.927 24.9219C198.326 24.9219 199.446 26.0413 199.446 27.4406C199.446 28.8399 198.326 29.9593 196.927 29.9593C195.528 29.9593 194.408 28.8399 194.408 27.4406Z" fill="#303755"/>
<path d="M198.886 33.5972H194.688V55.7058H198.886V33.5972Z" fill="#303755"/>
<path d="M201.125 44.7915C201.125 38.3548 206.442 33.3174 212.879 33.3174C215.957 33.3174 219.036 34.7167 220.995 36.6757L218.196 39.1944C216.797 37.7951 214.838 36.6757 212.879 36.6757C208.961 36.6757 205.603 40.3138 205.603 44.5116C205.603 48.7094 208.961 52.3476 213.159 52.3476C215.118 52.3476 217.077 51.508 218.476 49.8289L221.275 52.3476C219.036 54.5864 216.237 55.9857 212.879 55.9857C206.442 56.2655 201.125 50.9483 201.125 44.7915Z" fill="#303755"/>
<path d="M232.189 33.0376C229.67 33.0376 226.871 33.5973 223.793 35.2764L225.472 38.3549C227.431 37.2354 229.67 36.3959 231.629 36.3959C236.107 36.3959 237.226 39.4743 237.226 42.2728V42.8325C234.987 41.993 232.748 41.7131 230.51 41.7131C225.752 41.7131 221.554 44.7915 221.554 48.9894C221.554 53.1872 224.912 55.9858 229.67 55.9858C232.469 55.9858 235.547 54.8663 236.946 52.3476V55.426H241.144V42.2728C241.424 36.9556 238.346 33.0376 232.189 33.0376ZM237.226 48.9894C236.387 51.7879 233.308 53.1872 230.789 53.1872C227.991 53.1872 225.752 51.7879 225.752 49.2692C225.752 46.7505 228.271 45.0714 231.069 45.0714C233.308 45.0714 235.267 45.3512 237.226 45.911V48.9894Z" fill="#303755"/>
<path d="M34.051 24.082C31.5323 24.082 29.2935 26.3209 29.2935 28.8396C29.2935 31.3583 31.5323 33.5971 34.051 33.5971C36.5697 33.5971 38.8085 31.3583 38.8085 28.8396C38.8085 26.3209 36.8496 24.082 34.051 24.082Z" fill="#303755"/>
<path d="M42.4469 26.3208H39.3685C39.6483 27.1604 39.9282 27.9999 39.9282 28.8395C39.9282 29.3992 39.9282 29.9589 39.6483 30.2388H42.7267C49.4433 30.2388 54.2008 34.7165 54.2008 40.8733C54.2008 47.31 49.4433 51.7877 42.7267 51.7877H36.5699V34.1568C35.7303 34.4366 34.8908 34.7165 34.0512 34.7165C33.4915 34.7165 32.9318 34.7165 32.3721 34.4366V55.9855H42.4469C51.962 55.9855 58.6785 49.8287 58.6785 41.1531C58.6785 32.4776 51.962 26.3208 42.4469 26.3208Z" fill="#303755"/>
</g>
<defs>
<filter id="filter0_d_2958_783" x="0.334513" y="0.233489" width="251.048" height="78.3599" filterUnits="userSpaceOnUse" color-interpolation-filters="sRGB">
<feFlood flood-opacity="0" result="BackgroundImageFix"/>
<feColorMatrix in="SourceAlpha" type="matrix" values="0 0 0 0 0 0 0 0 0 0 0 0 0 0 0 0 0 0 127 0" result="hardAlpha"/>
<feOffset dx="-9.36907" dy="-4.25867"/>
<feGaussianBlur stdDeviation="9.79494"/>
<feColorMatrix type="matrix" values="0 0 0 0 0.890196 0 0 0 0 1 0 0 0 0 1 0 0 0 0.6 0"/>
<feBlend mode="normal" in2="BackgroundImageFix" result="effect1_dropShadow_2958_783"/>
<feBlend mode="normal" in="SourceGraphic" in2="effect1_dropShadow_2958_783" result="shape"/>
</filter>
</defs>
</svg>
<svg width="252" height="79" viewBox="0 0 252 79" fill="none" xmlns="http://www.w3.org/2000/svg">
<g filter="url(#filter0_d_2958_783)">
<path d="M60.917 27.4406C60.917 26.0413 62.0364 24.9219 63.4357 24.9219C64.835 24.9219 65.9544 26.0413 65.9544 27.4406C65.9544 28.8399 64.835 29.9593 63.4357 29.9593C62.0364 29.9593 60.917 28.8399 60.917 27.4406Z" fill="#303755"/>
<path d="M65.6749 33.5972H61.4771V55.7058H65.6749V33.5972Z" fill="#303755"/>
<path d="M78.2683 33.0376C75.7496 33.0376 72.951 33.5973 69.8726 35.2764L71.5518 38.3549C73.5108 37.2354 75.7496 36.3959 77.7086 36.3959C82.1863 36.3959 83.3057 39.4743 83.3057 42.2728V42.8325C81.0669 41.993 78.828 41.7131 76.5892 41.7131C71.8316 41.7131 67.6338 44.7915 67.6338 48.9894C67.6338 53.1872 70.9921 55.9858 75.7496 55.9858C78.5482 55.9858 81.6266 54.8663 83.0259 52.3476V55.426H87.2237V42.2728C87.5035 36.9556 84.4251 33.0376 78.2683 33.0376ZM83.5856 48.9894C82.746 51.7879 79.6676 53.1872 77.1489 53.1872C74.3503 53.1872 72.1115 51.7879 72.1115 49.2692C72.1115 46.7505 74.6302 45.0714 77.4287 45.0714C79.6676 45.0714 81.6266 45.3512 83.5856 45.911V48.9894Z" fill="#303755"/>
<path d="M107.933 33.5973V37.2354C106.254 34.7167 103.455 33.0376 100.097 33.0376C94.2198 33.0376 90.022 37.2354 90.022 43.6721C90.022 49.8289 94.2198 54.3066 100.097 54.3066C103.455 54.3066 106.254 52.9073 107.933 50.3886V53.4671C107.933 57.385 105.134 59.6239 100.377 59.6239C97.5781 59.6239 95.0594 58.7843 93.3802 57.1052L91.7011 60.1836C93.9399 61.8627 97.2982 63.262 100.936 63.262C107.373 63.262 112.131 59.344 112.131 53.4671V33.5973H107.933ZM100.936 50.3886C97.0184 50.3886 94.2198 47.5901 94.2198 43.3923C94.2198 39.4743 97.0184 36.6757 100.936 36.6757C104.854 36.6757 107.653 39.4743 107.653 43.3923C107.933 47.5901 104.854 50.3886 100.936 50.3886Z" fill="#303755"/>
<path d="M135.359 41.7131V55.7059H131.161V42.5527C131.161 39.1944 128.922 36.9556 126.124 36.9556C123.045 36.9556 120.247 38.9146 119.967 41.7131V55.9858H115.769V33.5973H119.967V36.6757C121.366 34.4369 123.885 33.0376 126.963 33.0376C131.721 33.0376 135.359 36.6757 135.359 41.7131Z" fill="#303755"/>
<path d="M149.072 33.0376C142.635 33.0376 137.318 38.3549 137.318 44.5117C137.318 50.9484 142.635 56.2656 149.072 56.2656C155.508 56.2656 160.826 50.9484 160.826 44.5117C160.546 38.3549 155.229 33.0376 149.072 33.0376ZM149.072 52.6275C144.874 52.6275 141.516 48.9894 141.516 44.7915C141.516 40.5937 144.874 36.9556 149.072 36.9556C152.99 36.9556 156.348 40.5937 156.348 44.7915C156.348 48.9894 152.99 52.6275 149.072 52.6275Z" fill="#303755"/>
<path d="M150.471 24.9219L154.389 25.7614L148.232 31.0787H145.154L150.471 24.9219Z" fill="#303755"/>
<path d="M161.385 52.9073L163.344 49.8289C165.583 51.508 168.102 52.6274 170.9 52.6274C173.419 52.6274 175.098 51.508 175.098 49.8289C175.098 47.8699 172.859 47.0303 170.061 46.4706C165.023 45.0713 162.505 43.672 162.505 40.0339C162.505 35.8361 165.863 33.3174 170.62 33.3174C173.419 33.3174 176.497 34.4368 178.736 35.8361L176.777 38.9145C174.538 37.5152 172.3 36.9555 170.341 36.9555C168.102 36.9555 166.423 37.7951 166.423 39.4742C166.423 41.1533 167.822 41.7131 171.46 42.8325C175.098 43.9519 179.016 45.0713 179.016 49.549C179.016 53.7468 175.378 56.5454 170.62 56.5454C167.542 56.2655 163.904 55.1461 161.385 52.9073Z" fill="#303755"/>
<path d="M193.289 54.8663C192.17 55.9857 190.491 56.5454 188.811 56.5454C185.453 56.5454 182.934 54.0267 182.934 50.3886V37.2354H179.576V33.5973H182.934V27.4404H187.132V33.5973H192.45V37.2354H187.132V50.1087C187.132 51.7879 188.252 52.6274 189.371 52.6274C190.211 52.6274 191.05 52.3476 191.61 51.7879L193.289 54.8663Z" fill="#303755"/>
<path d="M194.408 27.4406C194.408 26.0413 195.528 24.9219 196.927 24.9219C198.326 24.9219 199.446 26.0413 199.446 27.4406C199.446 28.8399 198.326 29.9593 196.927 29.9593C195.528 29.9593 194.408 28.8399 194.408 27.4406Z" fill="#303755"/>
<path d="M198.886 33.5972H194.688V55.7058H198.886V33.5972Z" fill="#303755"/>
<path d="M201.125 44.7915C201.125 38.3548 206.442 33.3174 212.879 33.3174C215.957 33.3174 219.036 34.7167 220.995 36.6757L218.196 39.1944C216.797 37.7951 214.838 36.6757 212.879 36.6757C208.961 36.6757 205.603 40.3138 205.603 44.5116C205.603 48.7094 208.961 52.3476 213.159 52.3476C215.118 52.3476 217.077 51.508 218.476 49.8289L221.275 52.3476C219.036 54.5864 216.237 55.9857 212.879 55.9857C206.442 56.2655 201.125 50.9483 201.125 44.7915Z" fill="#303755"/>
<path d="M232.189 33.0376C229.67 33.0376 226.871 33.5973 223.793 35.2764L225.472 38.3549C227.431 37.2354 229.67 36.3959 231.629 36.3959C236.107 36.3959 237.226 39.4743 237.226 42.2728V42.8325C234.987 41.993 232.748 41.7131 230.51 41.7131C225.752 41.7131 221.554 44.7915 221.554 48.9894C221.554 53.1872 224.912 55.9858 229.67 55.9858C232.469 55.9858 235.547 54.8663 236.946 52.3476V55.426H241.144V42.2728C241.424 36.9556 238.346 33.0376 232.189 33.0376ZM237.226 48.9894C236.387 51.7879 233.308 53.1872 230.789 53.1872C227.991 53.1872 225.752 51.7879 225.752 49.2692C225.752 46.7505 228.271 45.0714 231.069 45.0714C233.308 45.0714 235.267 45.3512 237.226 45.911V48.9894Z" fill="#303755"/>
<path d="M34.051 24.082C31.5323 24.082 29.2935 26.3209 29.2935 28.8396C29.2935 31.3583 31.5323 33.5971 34.051 33.5971C36.5697 33.5971 38.8085 31.3583 38.8085 28.8396C38.8085 26.3209 36.8496 24.082 34.051 24.082Z" fill="#303755"/>
<path d="M42.4469 26.3208H39.3685C39.6483 27.1604 39.9282 27.9999 39.9282 28.8395C39.9282 29.3992 39.9282 29.9589 39.6483 30.2388H42.7267C49.4433 30.2388 54.2008 34.7165 54.2008 40.8733C54.2008 47.31 49.4433 51.7877 42.7267 51.7877H36.5699V34.1568C35.7303 34.4366 34.8908 34.7165 34.0512 34.7165C33.4915 34.7165 32.9318 34.7165 32.3721 34.4366V55.9855H42.4469C51.962 55.9855 58.6785 49.8287 58.6785 41.1531C58.6785 32.4776 51.962 26.3208 42.4469 26.3208Z" fill="#303755"/>
</g>
<defs>
<filter id="filter0_d_2958_783" x="0.334513" y="0.233489" width="251.048" height="78.3599" filterUnits="userSpaceOnUse" color-interpolation-filters="sRGB">
<feFlood flood-opacity="0" result="BackgroundImageFix"/>
<feColorMatrix in="SourceAlpha" type="matrix" values="0 0 0 0 0 0 0 0 0 0 0 0 0 0 0 0 0 0 127 0" result="hardAlpha"/>
<feOffset dx="-9.36907" dy="-4.25867"/>
<feGaussianBlur stdDeviation="9.79494"/>
<feColorMatrix type="matrix" values="0 0 0 0 0.890196 0 0 0 0 1 0 0 0 0 1 0 0 0 0.6 0"/>
<feBlend mode="normal" in2="BackgroundImageFix" result="effect1_dropShadow_2958_783"/>
<feBlend mode="normal" in="SourceGraphic" in2="effect1_dropShadow_2958_783" result="shape"/>
</filter>
</defs>
</svg>
