    <svg width="14" height="15" viewBox="0 0 14 15" fill="none" xmlns="http://www.w3.org/2000/svg">
<path d="M4.5 14.4531C5.3125 14.4531 6 13.7969 6 12.9531V1.95312C6 1.14062 5.3125 0.453125 4.5 0.453125H1.5C0.65625 0.453125 0 1.14062 0 1.95312V12.9531C0 13.7969 0.65625 14.4531 1.5 14.4531H4.5ZM14 12.9531V1.95312C14 1.14062 13.3125 0.453125 12.5 0.453125H9.5C8.65625 0.453125 8 1.14062 8 1.95312V12.9531C8 13.7969 8.65625 14.4531 9.5 14.4531H12.5C13.3125 14.4531 14 13.7969 14 12.9531Z" fill="white"/>
</svg>
